<?xml version="1.0" encoding="iso-8859-1"?>
<!-- Generator: Adobe Illustrator 19.1.0, SVG Export Plug-In . SVG Version: 6.00 Build 0)  -->
<svg version="1.1" id="Layer_1" xmlns="http://www.w3.org/2000/svg" xmlns:xlink="http://www.w3.org/1999/xlink" x="0px" y="0px"
	 viewBox="0 0 72.149 34.676" style="enable-background:new 0 0 72.149 34.676;" xml:space="preserve">
<g>
	<g>
		<path style="fill:#B5B5B5;" d="M67.395,5.041C64.299,1.79,60.018,0,55.341,0c-6.75,0-12.601,3.595-17.694,7.988
			c0.394,0.048,0.759,0.217,1.042,0.505c0.319,0.324,0.481,0.742,0.498,1.165c4.757-4.086,10.142-7.392,16.154-7.392
			c4.051,0,7.749,1.541,10.413,4.338c2.663,2.794,4.129,6.669,4.129,10.911c0,8.214-6.682,14.896-14.896,14.896
			c-8.369,0-14.79-6.209-20.456-11.688l-0.114-0.11c-0.849-0.82-1.664-1.598-2.476-2.356c-0.221,0.767-0.793,1.386-1.531,1.673
			c0.795,0.741,1.596,1.505,2.433,2.313l0.113,0.109c5.974,5.777,12.745,12.324,22.03,12.324c9.463,0,17.161-7.698,17.161-17.161
			C72.149,12.687,70.461,8.258,67.395,5.041z"/>
		<path style="fill:#B5B5B5;" d="M27.081,18.393c-4.181,4.255-9.259,8.988-15.12,8.988c-5.618,0-9.696-4.128-9.696-9.815
			c0-5.545,4.457-10.055,9.934-10.055c4.484,0,8.196,2.877,11.498,6.003c0.028-0.399,0.183-0.792,0.483-1.101
			c0.292-0.302,0.687-0.48,1.102-0.52c-3.616-3.435-7.75-6.647-13.082-6.647C5.473,5.246,0,10.773,0,17.567
			c0,7,5.03,12.08,11.961,12.08c6.775,0,12.256-5.106,16.739-9.669C27.944,19.732,27.344,19.142,27.081,18.393z"/>
	</g>
	<path style="fill:#DF5B49;" d="M37.884,9.287c-0.107-0.109-0.25-0.169-0.403-0.169c-0.149,0-0.29,0.058-0.397,0.162l-7.065,6.959
		c-0.164-0.066-0.343-0.105-0.531-0.105c-0.122,0-0.239,0.02-0.352,0.049l-3.093-2.993c-0.293-0.283-0.761-0.275-1.044,0.017
		c-0.137,0.142-0.211,0.328-0.208,0.526c0.003,0.197,0.083,0.381,0.225,0.518l3.088,2.988c-0.023,0.103-0.039,0.208-0.039,0.318
		c0,0.786,0.637,1.423,1.423,1.423c0.786,0,1.423-0.637,1.423-1.423c0-0.181-0.037-0.352-0.098-0.511l7.065-6.96
		C38.099,9.868,38.102,9.509,37.884,9.287z"/>
</g>
</svg>
