<?xml version="1.0" encoding="iso-8859-1"?>
<!-- Generator: Adobe Illustrator 19.1.0, SVG Export Plug-In . SVG Version: 6.00 Build 0)  -->
<svg version="1.1" id="Layer_1" xmlns="http://www.w3.org/2000/svg" xmlns:xlink="http://www.w3.org/1999/xlink" x="0px" y="0px"
	 viewBox="0 0 162.296 67.517" style="enable-background:new 0 0 162.296 67.517;" xml:space="preserve">
<g>
	<g>
		<g>
			<g>
				<path style="fill:#A5A9AA;" d="M112.82,5.097C109.689,1.81,105.36,0,100.631,0c-6.826,0-12.743,3.635-17.893,8.078
					c0.398,0.048,0.768,0.22,1.054,0.51c0.323,0.328,0.486,0.751,0.504,1.178c4.811-4.132,10.256-7.475,16.335-7.475
					c4.096,0,7.836,1.558,10.53,4.387c2.693,2.825,4.176,6.744,4.176,11.034c0,8.306-6.758,15.064-15.063,15.064
					c-8.463,0-14.957-6.279-20.686-11.819l-0.115-0.111c-0.859-0.829-1.683-1.616-2.503-2.382c-0.224,0.776-0.802,1.401-1.548,1.691
					c0.804,0.75,1.614,1.522,2.46,2.339l0.114,0.11c6.041,5.842,12.888,12.462,22.278,12.462c9.569,0,17.354-7.785,17.354-17.354
					C117.628,12.83,115.921,8.35,112.82,5.097z"/>
				<path style="fill:#A5A9AA;" d="M72.054,18.6c-4.228,4.302-9.363,9.09-15.29,9.09c-5.681,0-9.805-4.174-9.805-9.925
					c0-5.607,4.507-10.168,10.046-10.168c4.534,0,8.288,2.909,11.627,6.071c0.029-0.404,0.185-0.8,0.488-1.114
					c0.296-0.305,0.695-0.486,1.114-0.526c-3.657-3.474-7.837-6.722-13.229-6.722c-6.802,0-12.337,5.589-12.337,12.459
					c0,7.078,5.087,12.216,12.096,12.216c6.851,0,12.394-5.164,16.927-9.778C72.926,19.954,72.319,19.357,72.054,18.6z"/>
			</g>
			<path style="fill:#DF5B49;" d="M82.977,9.391c-0.108-0.11-0.253-0.17-0.408-0.17c-0.151,0-0.294,0.058-0.401,0.164l-7.144,7.038
				c-0.166-0.067-0.347-0.106-0.537-0.106c-0.124,0-0.242,0.02-0.356,0.05l-3.128-3.027c-0.296-0.287-0.77-0.278-1.056,0.017
				c-0.139,0.143-0.213,0.332-0.21,0.532c0.003,0.199,0.084,0.386,0.228,0.524l3.122,3.022c-0.024,0.104-0.039,0.211-0.039,0.321
				c0,0.795,0.644,1.439,1.439,1.439c0.795,0,1.439-0.644,1.439-1.439c0-0.183-0.037-0.356-0.1-0.517l7.144-7.038
				C83.195,9.979,83.198,9.615,82.977,9.391z"/>
		</g>
	</g>
	<g>
		<path style="fill:#555555;" d="M1.057,46.132C0.484,46.132,0,46.616,0,47.189v18.912c0,0.573,0.484,1.056,1.057,1.056
			c0.598,0,1.085-0.474,1.085-1.056V47.189C2.142,46.606,1.655,46.132,1.057,46.132z M23.335,46.335
			c-0.573,0-1.057,0.484-1.057,1.057V62.81L10.644,46.676c-0.292-0.46-0.955-0.624-1.512-0.265c-0.358,0.279-0.505,0.692-0.4,1.115
			v18.574c0,0.573,0.484,1.056,1.057,1.056c0.572,0,1.056-0.483,1.056-1.056V50.597L22.345,66.58
			c0.058,0.116,0.146,0.183,0.162,0.186c0.216,0.259,0.495,0.391,0.828,0.391c0.598,0,1.085-0.474,1.085-1.056V47.392
			C24.42,46.809,23.933,46.335,23.335,46.335z M42.54,46.132H32.156l-0.144,0.001c-0.57,0.044-1,0.498-1,1.056v18.912
			c0,0.573,0.484,1.056,1.056,1.056c0.599,0,1.086-0.474,1.086-1.056V57.73h8.167c0.599,0,1.085-0.474,1.085-1.056
			c0-0.609-0.477-1.086-1.085-1.086h-8.167v-7.314h9.385c0.583,0,1.057-0.487,1.057-1.086C43.597,46.616,43.113,46.132,42.54,46.132
			z M49.824,46.132c-0.572,0-1.057,0.483-1.057,1.056v18.912c0,0.573,0.484,1.056,1.057,1.056c0.599,0,1.085-0.474,1.085-1.056
			V47.189C50.909,46.606,50.423,46.132,49.824,46.132z M72.102,46.335c-0.572,0-1.057,0.484-1.057,1.057V62.81L59.412,46.676
			c-0.292-0.46-0.955-0.624-1.512-0.265c-0.357,0.279-0.505,0.692-0.4,1.115v18.574c0,0.573,0.484,1.056,1.057,1.056
			c0.572,0,1.057-0.483,1.057-1.056V50.597L71.112,66.58c0.058,0.116,0.145,0.183,0.162,0.186c0.216,0.259,0.495,0.391,0.828,0.391
			c0.599,0,1.085-0.474,1.085-1.056V47.392C73.187,46.809,72.701,46.335,72.102,46.335z M80.809,46.132
			c-0.573,0-1.056,0.483-1.056,1.056v18.912c0,0.573,0.483,1.056,1.056,1.056c0.599,0,1.085-0.474,1.085-1.056V47.189
			C81.894,46.606,81.407,46.132,80.809,46.132z M86.831,47.189c0,0.599,0.474,1.086,1.057,1.086h5.76v17.826
			c0,0.573,0.484,1.056,1.056,1.056c0.573,0,1.057-0.483,1.057-1.056V48.274h5.76c0.582,0,1.057-0.487,1.057-1.086
			c0-0.573-0.484-1.056-1.057-1.056H87.888C87.315,46.132,86.831,46.616,86.831,47.189z M118.986,65.015h-9.357V57.73h8.138
			c0.572,0,1.057-0.483,1.057-1.056c0-0.599-0.474-1.086-1.057-1.086h-8.138v-7.314h9.357c0.592,0,1.056-0.477,1.056-1.086
			c0-0.593-0.464-1.056-1.056-1.056h-10.442c-0.573,0-1.056,0.483-1.056,1.056v18.912c0,0.556,0.416,1.009,0.968,1.055l10.53,0.001
			c0.592,0,1.056-0.464,1.056-1.056C120.042,65.492,119.578,65.015,118.986,65.015z"/>
		<path style="fill:#DE5B4E;" d="M134.752,58.104l4.875,8.767c0.221,0.347,0.604,0.555,1.025,0.555c0.239,0,0.475-0.067,0.684-0.192
			l0.36-0.223l0.01-0.099c0.159-0.194,0.261-0.431,0.288-0.684l1.958-18.752c0.051-0.483-0.09-0.949-0.385-1.277
			c-0.252-0.279-0.647-0.433-1.015-0.433c-0.842,0-1.364,0.691-1.44,1.573l-1.496,14.064l-3.639-6.853
			c-0.243-0.462-0.659-0.716-1.225-0.716s-0.982,0.254-1.225,0.716l-3.639,6.853l-1.496-14.064c-0.077-0.882-0.598-1.573-1.44-1.573
			c-0.368,0-0.763,0.154-1.015,0.433c-0.295,0.328-0.436,0.793-0.385,1.277l1.958,18.752c0.026,0.253,0.129,0.49,0.288,0.684
			l0.01,0.099l0.36,0.223c0.209,0.125,0.445,0.192,0.684,0.192c0.421,0,0.804-0.208,1.025-0.555L134.752,58.104z M155.803,45.772
			h-5.743c-0.781,0-1.417,0.635-1.417,1.417v18.912c0,0.781,0.635,1.417,1.417,1.417c0.797,0,1.446-0.635,1.446-1.417v-8.04h4.297
			c3.58,0,6.493-2.451,6.493-6.031C162.296,48.434,159.384,45.772,155.803,45.772z M156.009,55.231h-4.503v-6.597h4.503
			c2.018,0,3.453,1.44,3.453,3.298S158.023,55.208,156.009,55.231z"/>
	</g>
</g>
</svg>
